<?xml version="1.0" encoding="UTF-8"?>
<!-- Created with Inkscape (http://www.inkscape.org/) -->
<svg width="128" height="128" version="1.1" viewBox="0 0 33.867 33.867" xmlns="http://www.w3.org/2000/svg">
 <path d="m29.219 30.255s1.2495-6.4394-2.2106-9.6111c-3.266-2.9938-6.6265-1.7532-7.78-3.0027-1.1534-1.2495-1.5249-4.1534-1.5249-4.1534s-0.2816 3.2632-2.1077 4.3206c-1.8261 1.0572-6.1317 0.4563-8.8228 3.6281-2.6911 3.1717-1.6053 8.7963-1.6053 8.7963z" fill="#ffcd5c" stroke-width=".25412"/>
 <g transform="matrix(.25412 0 0 .25412 -79.039 -63.725)" fill="#a735ff">
  <path d="m365.12 369.78s-1.5566-13.157 3.259-19.774c3.4511-4.7426 11.257-9.8237 11.257-9.8237 0.0815 0.5706 9.6159 5.8855 11.84 12.094 2.6222 7.3185 1.3235 17.516 1.3235 17.516z"/>
  <path d="m398.61 369.8s-1.2295-10.393 2.3104-16.319c2.4752-4.1437 7.4898-6.9798 7.4898-6.9798s6.3004 2.8205 7.9051 8.5704c1.6046 5.7499 0.80261 14.748 0.80261 14.748z"/>
  <path d="m341.47 369.75 16.38 0.0115s0.64917-11.882-1.1061-15.647c-2.2001-4.7191-6.0298-8.2556-6.0298-8.2556s-4.9448 3.8349-7.6221 8.9592c-2.7493 5.2621-1.6221 14.932-1.6221 14.932z"/>
 </g>
 <path d="m18.796 8.9893s0.55918-1.4139 1.6595-2.8365c1.1004-1.4226 3.8484-3.0625 6.5889-2.0643 2.7403 0.99825 3.751 3.4901 2.6095 5.9518-1.1415 2.4618-3.5455 3.0321-4.7922 2.5054-0.75795-0.32015-1.2171-1.5678-1.1396-2.2542 0.0528-0.46721 0.36424-1.0667 0.36424-1.0667s-0.9873 0.195-1.3861 1.6713c-0.19186 1.0017 0.11039 2.5334 1.8848 3.286 1.7745 0.75259 4.3558-0.71222 5.3523-2.0282 0.40191-0.53079 1.4138-2.0882 1.4138-2.0882l0.857 0.54458c0.0532-0.0665-0.44803 1.2817-1.2935 2.5903-0.99503 1.5401-3.7961 3.5843-6.9481 2.6086-3.1522-0.97567-3.6116-3.7509-2.6678-5.8258 0.94377-2.0749 3.7463-3.3167 5.2033-2.7165 1.0851 0.44687 1.4251 1.204 1.3649 2.1015-0.02823 0.42084-0.60845 1.4201-0.60845 1.4201s1.0218-0.68982 1.2112-1.9105c0.09231-0.86358-0.02573-2.5799-1.8665-3.235-1.8408-0.65505-3.7809 0.42067-4.7978 1.3183-1.017 0.89755-1.9412 2.6182-1.9412 2.6182z" fill="#fff" stroke-width=".060884"/>
 <path d="m9.5426 4.1742s7.4125-0.30378 7.6555 3.0986c0.24297 3.4024-7.2303 3.1594-7.2303 3.1594l-0.58242 2.4916 2.466 2.2941-0.77943 0.92305-1.897-1.2538-0.618 2.7446-1.3484-0.03559 0.12152-2.9772-2.3088 0.48606-0.29642-1.1084 2.7949-1.0937 0.38235-2.7745s-6.6834-0.48606-6.4403-3.0986c0.24303-2.6126 8.0809-2.8557 8.0809-2.8557z" fill="#46af49" stroke-width=".10392"/>
</svg>
